<?xml version="1.0" encoding="utf-8"?>
<!-- Generator: Adobe Illustrator 27.7.0, SVG Export Plug-In . SVG Version: 6.00 Build 0)  -->
<svg version="1.1" id="Capa_1" xmlns="http://www.w3.org/2000/svg" xmlns:xlink="http://www.w3.org/1999/xlink" x="0px" y="0px"
	 viewBox="0 0 612 202" style="enable-background:new 0 0 612 202;" xml:space="preserve">
<style type="text/css">
	.st0{fill:#ADA8F9;}
</style>
<g>
	<g>
		<path class="st0" d="M86.6,101.6h39.8c-3.9,18.6-17.2,30-35.6,30c-23,0-37.9-18.1-37.9-46.1c0-26.6,14.2-43.1,37.2-43.1
			c16.2,0,28.7,8.2,33.6,22l1.3,3.6h29.4l-2.2-7c-8.7-27.7-32-44.7-62.3-45.4c-19.1-0.4-35.5,5.6-47.6,17.3
			C29.2,45.7,22,64.4,22,85.5c0,18.8,5.6,36.3,15.9,49.3c11.8,14.9,28.5,22.8,48.5,22.8c20.3,0,35.9-10.1,45.2-22.9l1.1,21H155V77.4
			H86.6V101.6z"/>
		<path class="st0" d="M215.3,49.4c-31,0-51.1,21-51.1,53.5c0,14.6,4.4,28.1,12.4,37.8c9.2,11.2,22.6,17.1,38.7,17.1
			s29.5-5.9,38.6-17.1c8-9.8,12.4-23.2,12.4-37.8C266.4,70.4,246.3,49.4,215.3,49.4z M215.3,133.8c-14,0-22-11.2-22-30.7
			c0-24.5,12-29.6,22-29.6s22,5.1,22,29.6C237.3,122.6,229.3,133.8,215.3,133.8z"/>
		<path class="st0" d="M368.7,83.1c10.9-5.9,16.3-15.5,16.3-28.9c0-36.8-40.8-36.8-54.2-36.8h-55.1v138.4h60.1
			c34.7,0,54.6-14.8,54.6-40.5C390.3,100,382.8,88.9,368.7,83.1z M305.8,42.4h21.1c25.3,0,27.4,7,27.4,14.8
			c0,7.4-2.1,14.6-27.6,14.6h-20.9L305.8,42.4L305.8,42.4z M329.8,96.2c29.4,0,29.4,11.5,29.4,17c0,9-3.6,17.4-29.4,17.4h-24V96.2
			L329.8,96.2L329.8,96.2z"/>
		<path class="st0" d="M417,13.2c-10.4,0-17.6,6.7-17.6,16.3c0,9.8,8.9,15.7,17.6,15.7c8.4,0,17.4-6.3,17.4-15.7
			C434.4,20.2,426.9,13.2,417,13.2z"/>
		<path class="st0" d="M409.9,51.7l-7.8-3.9v108h29.2v-108l-7.8,3.9C419.2,53.9,414.3,53.9,409.9,51.7z"/>
		<path class="st0" d="M515.6,60c-6.9-7.1-15.9-11-26.3-11c-31.4,0-45.5,26.1-45.5,52c0,13.5,3.6,25.9,10.2,34.9
			c8.1,11.2,20.3,17.1,35.3,17.1c10.4,0,19.4-3.8,26.3-10.6c0,1,0,1.9,0,2.9c0,6.2,0,25.3-19.4,25.3c-11.8,0-16.4-2.3-19.3-9.4
			l-1.4-3.4h-26.5l1.7,6.7c5.1,19.9,17.5,28,42.9,28c32,0,51.1-18.9,51.1-50.5V51.3h-29.2L515.6,60L515.6,60z M472.9,100.9
			c0-13.4,5.6-27.8,21.3-27.8c12.6,0,21.5,11.4,21.5,27.8c0,16.8-8.6,28.1-21.5,28.1C480.8,129,472.9,118.5,472.9,100.9z"/>
		<path class="st0" d="M573.4,126.8c-8.2,0-17,5.6-17,15.9c0,9.9,6.7,16.3,17,16.3c10.7,0,17.6-6.4,17.6-16.3
			C591,134.8,585,126.8,573.4,126.8z"/>
	</g>
</g>
</svg>
