<?xml version="1.0" encoding="utf-8"?>
<!-- Generator: Adobe Illustrator 27.7.0, SVG Export Plug-In . SVG Version: 6.00 Build 0)  -->
<svg version="1.1" id="Capa_1" xmlns="http://www.w3.org/2000/svg" xmlns:xlink="http://www.w3.org/1999/xlink" x="0px" y="0px"
	 viewBox="0 0 612 193.7" style="enable-background:new 0 0 612 193.7;" xml:space="preserve">
<style type="text/css">
	.st0{fill:#FFFFFF;}
</style>
<g>
	<g>
		<path class="st0" d="M86.1,94.6h39.8c-3.9,18.6-17.2,30-35.6,30c-23,0-37.9-18.1-37.9-46.1c0-26.6,14.2-43.1,37.2-43.1
			c16.2,0,28.7,8.2,33.6,22l1.3,3.6h29.4l-2.2-7c-8.7-27.7-32-44.7-62.3-45.4c-19.1-0.4-35.5,5.6-47.6,17.3
			C28.7,38.6,21.5,57.3,21.5,78.5c0,18.8,5.6,36.3,15.9,49.3c11.8,14.9,28.5,22.8,48.5,22.8c20.3,0,35.9-10.1,45.2-22.9l1.1,21h22.3
			V70.3H86.1V94.6z"/>
		<path class="st0" d="M214.8,42.4c-31,0-51.1,21-51.1,53.5c0,14.6,4.4,28.1,12.4,37.8c9.2,11.2,22.6,17.1,38.7,17.1
			s29.5-5.9,38.6-17.1c8-9.8,12.4-23.2,12.4-37.8C265.9,63.4,245.8,42.4,214.8,42.4z M214.8,126.8c-14,0-22-11.2-22-30.7
			c0-24.5,12-29.6,22-29.6s22,5.1,22,29.6C236.8,115.6,228.8,126.8,214.8,126.8z"/>
		<path class="st0" d="M368.2,76.1c10.9-5.9,16.3-15.5,16.3-28.9c0-36.8-40.8-36.8-54.2-36.8h-55.1v138.4h60.1
			c34.7,0,54.6-14.8,54.6-40.5C389.8,92.9,382.2,81.8,368.2,76.1z M305.3,35.4h21.1c25.3,0,27.4,7,27.4,14.8
			c0,7.4-2.1,14.6-27.6,14.6h-20.9L305.3,35.4L305.3,35.4z M329.3,89.2c29.4,0,29.4,11.5,29.4,17c0,9-3.6,17.4-29.4,17.4h-24V89.2
			L329.3,89.2L329.3,89.2z"/>
		<path class="st0" d="M416.5,6.1c-10.4,0-17.6,6.7-17.6,16.3c0,9.8,8.9,15.7,17.6,15.7c8.4,0,17.4-6.3,17.4-15.7
			C433.9,13.1,426.4,6.1,416.5,6.1z"/>
		<path class="st0" d="M409.4,44.6l-7.8-3.9v108h29.2v-108l-7.8,3.9C418.8,46.8,413.8,46.8,409.4,44.6z"/>
		<path class="st0" d="M515.1,53c-6.9-7.1-15.9-11-26.3-11c-31.4,0-45.5,26.1-45.5,52c0,13.5,3.6,25.9,10.2,34.9
			c8.1,11.2,20.3,17.1,35.3,17.1c10.4,0,19.4-3.8,26.3-10.6c0,1,0,1.9,0,2.9c0,6.2,0,25.3-19.4,25.3c-11.8,0-16.4-2.3-19.3-9.4
			l-1.4-3.4h-26.5l1.7,6.7c5.1,19.9,17.5,28,42.9,28c32,0,51.1-18.9,51.1-50.5V44.2h-29.2L515.1,53L515.1,53z M472.4,93.8
			c0-13.4,5.6-27.8,21.3-27.8c12.6,0,21.5,11.4,21.5,27.8c0,16.8-8.6,28.1-21.5,28.1C480.3,121.9,472.4,111.4,472.4,93.8z"/>
		<path class="st0" d="M572.9,119.7c-8.2,0-17,5.6-17,15.9c0,9.9,6.7,16.3,17,16.3c10.7,0,17.6-6.4,17.6-16.3
			C590.5,127.7,584.5,119.7,572.9,119.7z"/>
	</g>
</g>
</svg>
